<svg t="1722825793950" class="icon" viewBox="0 0 1024 1024" version="1.1" xmlns="http://www.w3.org/2000/svg" p-id="984" width="48" height="48"><path d="M586.322007 328.459775a141.262003 141.262003 0 0 0-13.68077-12.196003c-66.354454-52.180155-168.150927-36.613104-218.290051 15.500132-27.888528 28.704104-39.63701 67.458619-37.391038 108.730964-79.023073-11.510082-158.384924 13.68077-208.984115 73.836844-87.781108 104.590345-56.362598 268.91852 51.234923 369.786491 108.10778 100.859606 251.862519 106.577006 339.919668 10.891081 50.737213-55.618123 71.498858-134.423709 59.177382-212.8947 39.360968 1.334199 76.015897-10.602492 103.887695-37.474687 46.617507-45.233118 77.810164-136.385275 23.061989-214.826988a185.82593 185.82593 0 0 0-16.140047-19.762042" fill="#C75454" p-id="985"></path><path d="M321.916343 790.786994a4285.640318 4285.640318 0 0 0-116.819808-112.09783 4354.843015 4354.843015 0 0 1 39.975788-46.738798 4319.053853 4319.053853 0 0 1 116.853267 113.130893 4312.048261 4312.048261 0 0 0-40.009247 45.705735z" opacity=".5" p-id="986"></path><path d="M970.052762 151.70138a4851.140034 4851.140034 0 0 0-103.306335-113.026332 4803.882614 4803.882614 0 0 0-113.862821 92.996614c7.85881 8.147398 15.679978 16.307344 23.459322 24.488202-110.784543 80.005947-216.332668 163.629707-316.481259 250.365204a4542.676518 4542.676518 0 0 1 100.888883 105.560672c86.434361-99.784719 178.289169-197.197992 275.451496-291.809029 6.737915 7.352734 13.446553 14.722198 20.125914 22.100027a4711.178771 4711.178771 0 0 1 113.7248-90.675358z" fill="#CCA95C" p-id="987"></path><path d="M399.684683 481.093839c54.39685-1.037246 98.253945 43.346836 97.940261 97.814789-0.309501 54.493046-42.510348 98.446337-94.238799 99.433393-51.732634 0.953597-95.560451-41.389453-97.915167-95.828128-2.354715-54.417762 39.816855-100.412085 94.213705-101.420054z" fill="#8C3B3B" p-id="988"></path></svg>